<svg width="47" height="46" viewBox="0 0 47 46" fill="none" xmlns="http://www.w3.org/2000/svg">
<path d="M29.71 3.83334H22.2465C18.8655 3.83334 16.186 3.83334 14.0911 4.11701C11.9329 4.40834 10.1868 5.02168 8.81067 6.40359C7.43258 7.78551 6.82117 9.53926 6.53175 11.7051C6.25 13.8096 6.25 16.4987 6.25 19.8931V31.0826C6.25 33.9729 8.01333 36.4493 10.5184 37.4881C10.39 35.7439 10.39 33.3002 10.39 31.2647V21.6622C10.39 19.2069 10.39 17.089 10.6162 15.3947C10.8596 13.5777 11.4078 11.8373 12.8146 10.4248C14.2214 9.01218 15.956 8.46209 17.7653 8.21676C19.452 7.99059 21.5603 7.99059 24.0079 7.99059H29.8921C32.3377 7.99059 34.4422 7.99059 36.1308 8.21676C35.6248 6.92564 34.7416 5.81689 33.5963 5.03501C32.451 4.25313 31.0967 3.83438 29.71 3.83334Z" fill="#F5A435"/>
<path d="M13.15 21.8443C13.15 16.6194 13.15 14.007 14.7676 12.3836C16.3834 10.7602 18.9843 10.7602 24.19 10.7602H29.71C34.9137 10.7602 37.5165 10.7602 39.1342 12.3836C40.75 14.007 40.75 16.6194 40.75 21.8443V31.0826C40.75 36.3074 40.75 38.9199 39.1342 40.5433C37.5165 42.1667 34.9137 42.1667 29.71 42.1667H24.19C18.9862 42.1667 16.3834 42.1667 14.7676 40.5433C13.15 38.9199 13.15 36.3074 13.15 31.0826V21.8443Z" fill="#F5A435"/>
</svg>
