<svg width="51" height="61" viewBox="0 0 51 61" fill="none" xmlns="http://www.w3.org/2000/svg">
<g clip-path="url(#clip0_128_162)">
<path fill-rule="evenodd" clip-rule="evenodd" d="M30.2983 21.8343C32.1259 20.923 34.4513 19.5815 36.7796 17.7436C37.2705 18.763 37.3243 19.6526 37.0713 20.371C36.8921 20.8772 36.5543 21.3175 36.1102 21.6678C35.6293 22.0464 35.0287 22.322 34.3647 22.471C33.1049 22.7548 31.634 22.5891 30.2983 21.8343ZM30.6151 31.1716L33.0344 32.569C28.0947 35.3376 26.7518 40.4784 25.1567 45.4856C23.5617 40.4784 22.2186 35.3376 17.2791 32.569L19.6984 31.1716C19.9324 31.0832 20.1324 30.9229 20.2698 30.7138C20.4072 30.5047 20.4748 30.2575 20.4631 30.0076C20.2415 25.3182 21.5076 23.2445 23.2155 21.9424C23.8281 21.476 24.4969 21.2418 25.1567 21.2418C25.8164 21.2418 26.4852 21.476 27.098 21.9424C28.8059 23.2445 30.072 25.3182 29.8504 30.0076C29.8387 30.2575 29.9063 30.5047 30.0437 30.7138C30.1811 30.9229 30.3811 31.0832 30.6151 31.1716ZM25.1567 0.552063C27.9531 0.627142 30.7565 1.17002 33.1895 2.22611C34.8743 2.95838 36.4464 3.92565 37.8699 5.0823C38.5128 5.60447 39.0421 6.10892 39.6252 6.68963C41.1979 6.744 43.4963 4.99687 44.5633 3.36205C42.727 9.38233 34.3472 16.4917 28.5458 19.2121C28.5434 19.2111 28.5418 19.2097 28.54 19.2085C27.4988 18.4135 26.3278 18.016 25.1567 18.016C23.9855 18.016 22.8147 18.4135 21.7735 19.2085C21.7717 19.2095 21.7701 19.2113 21.7677 19.2121C15.9661 16.4917 7.58654 9.38233 5.75018 3.36205C6.81702 4.99687 9.1154 6.744 10.6881 6.68963C11.2714 6.10911 11.8007 5.60447 12.4434 5.0823C13.8669 3.92565 15.439 2.95838 17.1238 2.22611C19.557 1.17002 22.3604 0.627142 25.1567 0.552063ZM20.015 21.8343C18.1876 20.923 15.862 19.5815 13.5339 17.7436C13.043 18.763 12.9892 19.6526 13.242 20.371C13.4214 20.8772 13.7592 21.3175 14.2031 21.6678C14.6842 22.0464 15.2848 22.322 15.9488 22.471C17.2086 22.7548 18.6793 22.5891 20.015 21.8343Z" fill="white"/>
<path fill-rule="evenodd" clip-rule="evenodd" d="M39.3294 15.4914C40.6112 14.1979 41.7405 12.7662 42.6487 11.4887L43.1099 12.3568C44.5947 15.3275 45.3662 18.2863 45.3662 21.616L45.3631 26.8998L45.3909 29.6389C45.4985 36.3634 46.9535 43.1669 50.2494 49.3931L43.3534 43.8325L38.4741 51.7505L33.348 46.9249L25.1566 60.2179L16.9652 46.9251L11.8393 51.7506L6.95997 43.8327L0.0638428 49.3933C3.35976 43.1671 4.81474 36.3636 4.92248 29.6391L4.95036 26.9L4.94717 21.6162C4.94717 18.2863 5.71848 15.3275 7.20373 12.357L7.66476 11.4889C8.57288 12.7664 9.70205 14.1979 10.984 15.4916L10.5837 16.323C9.80601 17.9379 9.54851 19.7436 10.1543 21.4609C10.5449 22.567 11.2576 23.5155 12.1765 24.2396C13.0687 24.9428 14.1246 25.4168 15.23 25.6657C15.9502 25.8278 16.6838 25.8945 17.4127 25.8718C17.2426 26.8359 17.1683 27.8358 17.1636 28.8547L10.6586 32.6118L15.6783 35.4256C16.0795 35.6506 16.4615 35.9083 16.8202 36.1961C20.9587 39.9118 23.4469 50.9043 25.1568 56.2735C26.8669 50.9043 29.3549 39.9118 33.4936 36.1961C33.8523 35.9082 34.2343 35.6505 34.6355 35.4256L39.6552 32.6118L33.15 28.8547C33.1453 27.8358 33.071 26.8359 32.9009 25.8718C33.6298 25.8945 34.3635 25.8278 35.0836 25.6657C36.1891 25.4168 37.2451 24.9428 38.1371 24.2396C39.0558 23.5155 39.7688 22.567 40.1591 21.4609C40.7651 19.7436 40.5074 17.9381 39.7299 16.323L39.3296 15.4916L39.3294 15.4914Z" fill="white"/>
</g>
<defs>
<clipPath id="clip0_128_162">
<rect width="50.1855" height="59.7447" fill="white" transform="translate(0.0638428 0.552063)"/>
</clipPath>
</defs>
</svg>
