<svg width="51" height="50" viewBox="0 0 51 50" fill="none" xmlns="http://www.w3.org/2000/svg">
<path fill-rule="evenodd" clip-rule="evenodd" d="M39.3294 4.4914C40.6112 3.19793 41.7405 1.76625 42.6487 0.488708L43.1099 1.3568C44.5947 4.3275 45.3662 7.28626 45.3662 10.616L45.3631 15.8998L45.3909 18.6389C45.4985 25.3634 46.9535 32.1669 50.2494 38.3931L43.3534 32.8325L38.4741 40.7505L33.348 35.9249L25.1566 49.2179L16.9652 35.9251L11.8393 40.7506L6.95997 32.8327L0.0638428 38.3933C3.35976 32.1671 4.81474 25.3636 4.92248 18.6391L4.95036 15.9L4.94717 10.6162C4.94717 7.28626 5.71848 4.3275 7.20373 1.357L7.66476 0.488908C8.57288 1.76645 9.70205 3.19793 10.984 4.4916L10.5837 5.32305C9.80601 6.93795 9.54851 8.74363 10.1543 10.4609C10.5449 11.567 11.2576 12.5155 12.1765 13.2396C13.0687 13.9428 14.1246 14.4168 15.23 14.6657C15.9502 14.8278 16.6838 14.8945 17.4127 14.8718C17.2426 15.8359 17.1683 16.8358 17.1636 17.8547L10.6586 21.6118L15.6783 24.4256C16.0795 24.6506 16.4615 24.9083 16.8202 25.1961C20.9587 28.9118 23.4469 39.9043 25.1568 45.2735C26.8669 39.9043 29.3549 28.9118 33.4936 25.1961C33.8523 24.9082 34.2343 24.6505 34.6355 24.4256L39.6552 21.6118L33.15 17.8547C33.1453 16.8358 33.071 15.8359 32.9009 14.8718C33.6298 14.8945 34.3635 14.8278 35.0836 14.6657C36.1891 14.4168 37.2451 13.9428 38.1371 13.2396C39.0558 12.5155 39.7688 11.567 40.1591 10.4609C40.7651 8.74363 40.5074 6.93815 39.7299 5.32305L39.3296 4.4916L39.3294 4.4914Z" fill="white"/>
</svg>
