<svg width="57" height="66" viewBox="0 0 57 66" fill="none" xmlns="http://www.w3.org/2000/svg">
<path fill-rule="evenodd" clip-rule="evenodd" d="M21.3745 4.319C17.5417 6.31563 14.4058 8.00518 14.4065 8.0739C14.4082 8.25126 23.6055 12.9092 23.932 12.8978C24.0805 12.8928 25.1577 12.397 26.3257 11.796L28.4497 10.7035L30.7694 11.8959L33.0889 13.0884L36.8876 11.3815C42.6114 8.80947 43.2059 8.52762 43.1127 8.43293C42.9891 8.30729 40.936 7.20438 35.366 4.27195C32.6741 2.85468 30.0614 1.46509 29.5598 1.18391C29.0583 0.902725 28.5795 0.676531 28.4959 0.68091C28.4122 0.685288 25.2075 2.32244 21.3745 4.319ZM4.56351 13.0243L0.573513 15.0853V24.1305C0.573513 29.1054 0.625906 33.1757 0.690172 33.1757C0.754216 33.1757 2.7173 32.3247 5.05248 31.2846L9.29829 29.3936V19.8593L11.3731 20.9897C12.9719 21.86 14.5716 22.7284 16.1723 23.5952L18.8967 25.0702L20.109 24.522C20.8693 24.1777 21.6281 23.83 22.3854 23.4789C22.9705 23.2064 24.4069 22.5595 25.5773 22.041C26.7477 21.5222 27.8311 21.0006 27.9847 20.8817C28.1888 20.7238 25.7003 19.3487 18.7807 15.7953C13.5649 13.1169 9.12998 10.9339 8.92545 10.9444C8.72093 10.9548 6.75806 11.8907 4.56351 13.0243ZM43.8318 13.6031C41.1144 14.8299 38.8891 15.8826 38.8866 15.9427C38.8842 16.0026 40.3653 16.8833 42.1781 17.8994C43.9908 18.9157 45.4739 19.8015 45.4739 19.8682C45.4739 19.9348 43.8699 20.712 41.9096 21.5957C39.9491 22.4792 34.9936 24.7171 30.8973 26.5688L17.1718 32.773C13.7191 34.3338 10.607 35.7406 10.2559 35.8996C3.20368 39.0921 1.2653 39.9779 0.99911 40.13C0.731433 40.2831 0.670803 41.1725 0.62316 45.6365L0.566315 50.9606L4.13435 52.7786L7.70232 54.5966L12.6499 52.3637C15.3711 51.1358 17.5974 50.0667 17.5974 49.9879C17.5974 49.9094 17.0945 49.5818 16.4802 49.2596C15.8656 48.9374 14.5969 48.224 13.6606 47.6741C12.7244 47.1242 11.7908 46.6196 11.5858 46.5527C11.3809 46.486 11.2163 46.3692 11.2196 46.2931C11.223 46.2172 13.4017 45.1823 16.0608 43.9932C21.2256 41.684 25.1781 39.9042 33.6636 36.0669C37.4581 34.3513 41.253 32.6368 45.0483 30.9234C48.384 29.4178 52.2622 27.6594 53.6667 27.0158L56.2203 25.8457L56.2771 20.461L56.3341 15.0764L52.7152 13.2189C50.7248 12.1974 49.0234 11.3641 48.9342 11.3671C48.8451 11.37 46.549 12.376 43.8318 13.6031ZM55.2507 33.0293C54.7174 33.2898 53.6641 33.7775 52.91 34.113C52.1558 34.4485 50.7248 35.0942 49.7299 35.5482L47.9211 36.3732L47.8798 41.1005C47.8571 43.7005 47.7613 45.8162 47.6671 45.8025C47.453 45.7706 44.0629 44.032 40.6552 42.206C38.1956 40.8883 38.0411 40.8359 37.4631 41.1221C37.1291 41.2877 35.132 42.1833 33.0253 43.1128C30.9185 44.0421 29.1262 44.8632 29.0419 44.9376C28.9578 45.0118 33.1978 47.3098 38.4644 50.0446L48.0397 55.017L52.1301 52.901C54.3796 51.7374 56.2924 50.676 56.3805 50.5424C56.5788 50.2423 56.5618 32.5145 56.3633 32.5385C56.2848 32.5479 55.784 32.7688 55.2507 33.0293ZM32.5997 53.8372C31.8902 54.1423 31.1808 54.4478 30.4717 54.7537C28.3303 55.6801 28.75 55.7108 26.2023 54.4426C24.5055 53.5979 23.7741 53.3373 23.4566 53.4638C23.2185 53.5587 21.169 54.4807 18.9019 55.5128C16.6349 56.5448 14.7014 57.3892 14.6052 57.3892C13.6541 57.3892 15.2353 58.3339 21.3371 61.4119L28.4931 65.0213L31.504 63.5348C33.16 62.7173 36.5 61.0801 38.9266 59.8967C41.3529 58.7131 43.3081 57.714 43.2715 57.6763C43.2346 57.6387 41.2016 56.5947 38.7534 55.3563L34.3021 53.1049L32.5997 53.8372Z" fill="white"/>
</svg>
